<svg width="133" height="24" viewBox="0 0 133 24" fill="none" xmlns="http://www.w3.org/2000/svg">
<path d="M15.718 22L0 1H8.99356L20.0349 17.2627H20.5607L24.3518 1H40.9553L44.685 17.2729H45.2108L63.9788 1H73L49.5 22H40.8939L36.7214 6.27051H36.2786L24.3518 22H15.718Z" fill="white"/>
<path d="M111.793 16.7898V20.7273H110.788V14.1818H111.759V15.2046H111.844C111.998 14.8722 112.231 14.6051 112.543 14.4034C112.856 14.1989 113.259 14.0966 113.754 14.0966C114.197 14.0966 114.584 14.1875 114.917 14.3693C115.249 14.5483 115.508 14.8211 115.692 15.1875C115.877 15.5512 115.969 16.0114 115.969 16.5682V20.7273H114.964V16.6364C114.964 16.1222 114.83 15.7216 114.563 15.4347C114.296 15.1449 113.93 15 113.464 15C113.143 15 112.856 15.0696 112.603 15.2088C112.353 15.348 112.155 15.5512 112.011 15.8182C111.866 16.0853 111.793 16.4091 111.793 16.7898Z" fill="white"/>
<path d="M106.117 23.3182C105.632 23.3182 105.214 23.2557 104.864 23.1307C104.515 23.0086 104.224 22.8466 103.991 22.6449C103.761 22.4461 103.578 22.233 103.441 22.0057L104.242 21.4432C104.333 21.5625 104.448 21.6989 104.587 21.8523C104.727 22.0086 104.917 22.1435 105.159 22.2571C105.403 22.3736 105.722 22.4318 106.117 22.4318C106.646 22.4318 107.082 22.304 107.426 22.0483C107.769 21.7926 107.941 21.3921 107.941 20.8466V19.5171H107.856C107.782 19.6364 107.677 19.7841 107.541 19.9603C107.407 20.1336 107.214 20.2884 106.961 20.4247C106.711 20.5583 106.373 20.625 105.947 20.625C105.418 20.625 104.944 20.5 104.524 20.25C104.106 20 103.775 19.6364 103.531 19.1591C103.289 18.6818 103.168 18.1023 103.168 17.4205C103.168 16.75 103.286 16.1662 103.522 15.6691C103.758 15.1691 104.086 14.7827 104.507 14.51C104.927 14.2344 105.413 14.0966 105.964 14.0966C106.39 14.0966 106.728 14.1676 106.978 14.3097C107.231 14.4489 107.424 14.608 107.558 14.787C107.694 14.9631 107.799 15.108 107.873 15.2216H107.975V14.1818H108.947V20.9148C108.947 21.4773 108.819 21.9347 108.563 22.287C108.311 22.6421 107.97 22.902 107.541 23.0668C107.114 23.2344 106.64 23.3182 106.117 23.3182ZM106.083 19.7216C106.487 19.7216 106.828 19.6293 107.106 19.4446C107.384 19.26 107.596 18.9943 107.741 18.6478C107.886 18.3012 107.958 17.8864 107.958 17.4034C107.958 16.9318 107.887 16.5157 107.745 16.1549C107.603 15.7941 107.393 15.5114 107.114 15.3068C106.836 15.1023 106.492 15 106.083 15C105.657 15 105.302 15.108 105.018 15.3239C104.737 15.5398 104.525 15.8296 104.383 16.1932C104.244 16.5568 104.174 16.9603 104.174 17.4034C104.174 17.858 104.245 18.26 104.387 18.6094C104.532 18.956 104.745 19.2287 105.026 19.4276C105.311 19.6236 105.663 19.7216 106.083 19.7216Z" fill="white"/>
<path d="M100.627 20.7273V14.1818H101.633V20.7273H100.627ZM101.139 13.0909C100.943 13.0909 100.774 13.0242 100.632 12.8906C100.492 12.7571 100.423 12.5966 100.423 12.4091C100.423 12.2216 100.492 12.0611 100.632 11.9276C100.774 11.7941 100.943 11.7273 101.139 11.7273C101.335 11.7273 101.502 11.7941 101.642 11.9276C101.784 12.0611 101.855 12.2216 101.855 12.4091C101.855 12.5966 101.784 12.7571 101.642 12.8906C101.502 13.0242 101.335 13.0909 101.139 13.0909Z" fill="white"/>
<path d="M98.9945 15.6478L98.0911 15.9034C98.0343 15.7529 97.9505 15.6066 97.8397 15.4645C97.7317 15.3196 97.584 15.2003 97.3965 15.1066C97.209 15.0128 96.9689 14.9659 96.6763 14.9659C96.2757 14.9659 95.9419 15.0583 95.6749 15.2429C95.4107 15.4247 95.2786 15.6563 95.2786 15.9375C95.2786 16.1875 95.3695 16.385 95.5513 16.5299C95.7331 16.6747 96.0172 16.7955 96.4036 16.8921L97.3752 17.1307C97.9604 17.2728 98.3965 17.4901 98.6834 17.7827C98.9703 18.0725 99.1138 18.4461 99.1138 18.9034C99.1138 19.2784 99.0059 19.6137 98.7899 19.9091C98.5769 20.2046 98.2786 20.4375 97.8951 20.608C97.5115 20.7784 97.0655 20.8637 96.557 20.8637C95.8894 20.8637 95.3368 20.7188 94.8993 20.429C94.4618 20.1392 94.1848 19.7159 94.0684 19.1591L95.0229 18.9205C95.1138 19.2728 95.2857 19.537 95.5385 19.7131C95.7942 19.8892 96.128 19.9773 96.5399 19.9773C97.0087 19.9773 97.3809 19.8779 97.6564 19.679C97.9348 19.4773 98.074 19.2358 98.074 18.9546C98.074 18.7273 97.9945 18.537 97.8354 18.3836C97.6763 18.2273 97.432 18.1108 97.1024 18.0341L96.0115 17.7784C95.4121 17.6364 94.9718 17.4162 94.6905 17.1179C94.4121 16.8168 94.2729 16.4404 94.2729 15.9887C94.2729 15.6193 94.3766 15.2926 94.584 15.0086C94.7942 14.7245 95.0797 14.5014 95.4405 14.3395C95.8042 14.1776 96.2161 14.0966 96.6763 14.0966C97.324 14.0966 97.8326 14.2387 98.2019 14.5228C98.574 14.8068 98.8382 15.1818 98.9945 15.6478Z" fill="white"/>
<path d="M90.118 20.8637C89.4873 20.8637 88.9433 20.7245 88.4859 20.4461C88.0314 20.1648 87.6805 19.7728 87.4334 19.2699C87.1891 18.7642 87.0669 18.1762 87.0669 17.5057C87.0669 16.8353 87.1891 16.2443 87.4334 15.733C87.6805 15.2188 88.0243 14.8182 88.4646 14.5313C88.9078 14.2415 89.4248 14.0966 90.0158 14.0966C90.3567 14.0966 90.6933 14.1534 91.0257 14.2671C91.3581 14.3807 91.6606 14.5654 91.9334 14.8211C92.2061 15.0739 92.4234 15.4091 92.5854 15.8267C92.7473 16.2443 92.8283 16.7586 92.8283 17.3693V17.7955H87.7828V16.9262H91.8055C91.8055 16.5568 91.7317 16.2273 91.5839 15.9375C91.4391 15.6478 91.2317 15.4191 90.9618 15.2514C90.6947 15.0838 90.3794 15 90.0158 15C89.6152 15 89.2686 15.0995 88.976 15.2983C88.6862 15.4943 88.4632 15.75 88.307 16.0654C88.1507 16.3807 88.0726 16.7188 88.0726 17.0796V17.6591C88.0726 18.1534 88.1578 18.5725 88.3283 18.9162C88.5016 19.2571 88.7416 19.5171 89.0484 19.6961C89.3552 19.8722 89.7118 19.9603 90.118 19.9603C90.3822 19.9603 90.6209 19.9233 90.8339 19.8495C91.0498 19.7728 91.2359 19.6591 91.3922 19.5086C91.5484 19.3551 91.6692 19.1648 91.7544 18.9375L92.726 19.2103C92.6237 19.5398 92.4518 19.8296 92.2104 20.0796C91.9689 20.3267 91.6706 20.5199 91.3155 20.6591C90.9604 20.7955 90.5612 20.8637 90.118 20.8637Z" fill="white"/>
<path d="M82.3922 20.8636C81.8467 20.8636 81.3652 20.7259 80.9476 20.4503C80.53 20.1719 80.2033 19.7798 79.9675 19.2741C79.7317 18.7656 79.6138 18.1648 79.6138 17.4716C79.6138 16.7841 79.7317 16.1875 79.9675 15.6818C80.2033 15.1761 80.5314 14.7855 80.9518 14.5099C81.3723 14.2344 81.8581 14.0966 82.4092 14.0966C82.8354 14.0966 83.172 14.1676 83.4192 14.3097C83.6692 14.4489 83.8595 14.608 83.9902 14.7869C84.1237 14.9631 84.2274 15.108 84.3013 15.2216H84.3865V12H85.3922V20.7273H84.4206V19.7216H84.3013C84.2274 19.8409 84.1223 19.9915 83.9859 20.1733C83.8496 20.3523 83.655 20.5128 83.4021 20.6548C83.1493 20.794 82.8126 20.8636 82.3922 20.8636ZM82.5285 19.9602C82.932 19.9602 83.2729 19.8551 83.5513 19.6449C83.8297 19.4318 84.0413 19.1378 84.1862 18.7628C84.3311 18.3849 84.4035 17.9489 84.4035 17.4545C84.4035 16.9659 84.3325 16.5384 84.1905 16.1719C84.0484 15.8026 83.8382 15.5156 83.5598 15.3111C83.2814 15.1037 82.9376 15 82.5285 15C82.1024 15 81.7473 15.1094 81.4632 15.3281C81.182 15.544 80.9703 15.8381 80.8283 16.2102C80.6891 16.5795 80.6195 16.9943 80.6195 17.4545C80.6195 17.9205 80.6905 18.3437 80.8325 18.7244C80.9774 19.1023 81.1905 19.4034 81.4717 19.6278C81.7558 19.8494 82.1081 19.9602 82.5285 19.9602Z" fill="white"/>
<path d="M132.874 2.18182L130.454 8.72728H129.431L127.011 2.18182H128.102L129.908 7.39773H129.977L131.783 2.18182H132.874Z" fill="white"/>
<path d="M123.255 8.86366C122.665 8.86366 122.146 8.72304 121.7 8.44179C121.257 8.16054 120.91 7.76707 120.66 7.26139C120.413 6.75571 120.29 6.1648 120.29 5.48866C120.29 4.80685 120.413 4.21168 120.66 3.70315C120.91 3.19463 121.257 2.79974 121.7 2.51849C122.146 2.23724 122.665 2.09662 123.255 2.09662C123.846 2.09662 124.363 2.23724 124.807 2.51849C125.253 2.79974 125.599 3.19463 125.846 3.70315C126.096 4.21168 126.221 4.80685 126.221 5.48866C126.221 6.1648 126.096 6.75571 125.846 7.26139C125.599 7.76707 125.253 8.16054 124.807 8.44179C124.363 8.72304 123.846 8.86366 123.255 8.86366ZM123.255 7.96026C123.704 7.96026 124.074 7.8452 124.363 7.61508C124.653 7.38497 124.868 7.08241 125.007 6.70741C125.146 6.33241 125.216 5.92616 125.216 5.48866C125.216 5.05116 125.146 4.64349 125.007 4.26565C124.868 3.88781 124.653 3.58241 124.363 3.34946C124.074 3.1165 123.704 3.00003 123.255 3.00003C122.807 3.00003 122.437 3.1165 122.148 3.34946C121.858 3.58241 121.643 3.88781 121.504 4.26565C121.365 4.64349 121.295 5.05116 121.295 5.48866C121.295 5.92616 121.365 6.33241 121.504 6.70741C121.643 7.08241 121.858 7.38497 122.148 7.61508C122.437 7.8452 122.807 7.96026 123.255 7.96026Z" fill="white"/>
<path d="M115.276 6.34091L115.259 5.09659H115.463L118.327 2.18182H119.571L116.52 5.26705H116.435L115.276 6.34091ZM114.338 8.72727V0H115.344V8.72727H114.338ZM118.497 8.72727L115.941 5.48864L116.657 4.78977L119.776 8.72727H118.497Z" fill="white"/>
<path d="M106.071 8.72728L104.077 2.18182H105.134L106.549 7.19319H106.617L108.015 2.18182H109.089L110.469 7.17614H110.537L111.952 2.18182H113.009L111.015 8.72728H110.026L108.594 3.69887H108.492L107.06 8.72728H106.071Z" fill="white"/>
<path d="M100.348 8.86366C99.7178 8.86366 99.1738 8.72446 98.7164 8.44605C98.2619 8.1648 97.911 7.77276 97.6638 7.26991C97.4195 6.76423 97.2974 6.17616 97.2974 5.50571C97.2974 4.83525 97.4195 4.24435 97.6638 3.73298C97.911 3.21878 98.2548 2.81821 98.6951 2.53128C99.1383 2.2415 99.6553 2.09662 100.246 2.09662C100.587 2.09662 100.924 2.15344 101.256 2.26707C101.589 2.38071 101.891 2.56537 102.164 2.82105C102.437 3.07389 102.654 3.40912 102.816 3.82673C102.978 4.24435 103.059 4.75855 103.059 5.36935V5.79548H98.0133V4.92616H102.036C102.036 4.55685 101.962 4.2273 101.814 3.93753C101.67 3.64775 101.462 3.41906 101.192 3.25145C100.925 3.08383 100.61 3.00003 100.246 3.00003C99.8457 3.00003 99.4991 3.09946 99.2065 3.29832C98.9167 3.49435 98.6937 3.75003 98.5374 4.06537C98.3812 4.38071 98.303 4.71878 98.303 5.07957V5.65912C98.303 6.15344 98.3883 6.57247 98.5587 6.91622C98.732 7.25713 98.9721 7.51707 99.2789 7.69605C99.5857 7.87219 99.9422 7.96026 100.348 7.96026C100.613 7.96026 100.851 7.92332 101.064 7.84946C101.28 7.77276 101.466 7.65912 101.623 7.50855C101.779 7.35514 101.9 7.1648 101.985 6.93753L102.956 7.21026C102.854 7.5398 102.682 7.82957 102.441 8.07957C102.199 8.32673 101.901 8.51991 101.546 8.65912C101.191 8.79548 100.792 8.86366 100.348 8.86366Z" fill="white"/>
<path d="M93.3384 8.72732V2.18186H94.31V3.1705H94.3782C94.4975 2.84664 94.7134 2.58385 95.0259 2.38215C95.3384 2.18044 95.6907 2.07959 96.0827 2.07959C96.1566 2.07959 96.2489 2.08101 96.3597 2.08385C96.4705 2.08669 96.5543 2.09095 96.6111 2.09664V3.11936C96.577 3.11084 96.4989 3.09806 96.3767 3.08101C96.2574 3.06112 96.131 3.05118 95.9975 3.05118C95.6793 3.05118 95.3952 3.11794 95.1452 3.25147C94.898 3.38215 94.702 3.56397 94.5571 3.79692C94.4151 4.02703 94.3441 4.28982 94.3441 4.58527V8.72732H93.3384Z" fill="white"/>
<path d="M88.8375 8.86366C88.2466 8.86366 87.7281 8.72304 87.2821 8.44179C86.8389 8.16054 86.4923 7.76707 86.2423 7.26139C85.9952 6.75571 85.8716 6.1648 85.8716 5.48866C85.8716 4.80685 85.9952 4.21168 86.2423 3.70315C86.4923 3.19463 86.8389 2.79974 87.2821 2.51849C87.7281 2.23724 88.2466 2.09662 88.8375 2.09662C89.4284 2.09662 89.9454 2.23724 90.3886 2.51849C90.8347 2.79974 91.1812 3.19463 91.4284 3.70315C91.6784 4.21168 91.8034 4.80685 91.8034 5.48866C91.8034 6.1648 91.6784 6.75571 91.4284 7.26139C91.1812 7.76707 90.8347 8.16054 90.3886 8.44179C89.9454 8.72304 89.4284 8.86366 88.8375 8.86366ZM88.8375 7.96026C89.2864 7.96026 89.6557 7.8452 89.9454 7.61508C90.2352 7.38497 90.4497 7.08241 90.5889 6.70741C90.7281 6.33241 90.7977 5.92616 90.7977 5.48866C90.7977 5.05116 90.7281 4.64349 90.5889 4.26565C90.4497 3.88781 90.2352 3.58241 89.9454 3.34946C89.6557 3.1165 89.2864 3.00003 88.8375 3.00003C88.3886 3.00003 88.0193 3.1165 87.7295 3.34946C87.4398 3.58241 87.2253 3.88781 87.0861 4.26565C86.9469 4.64349 86.8773 5.05116 86.8773 5.48866C86.8773 5.92616 86.9469 6.33241 87.0861 6.70741C87.2253 7.08241 87.4398 7.38497 87.7295 7.61508C88.0193 7.8452 88.3886 7.96026 88.8375 7.96026Z" fill="white"/>
<path d="M80.8579 6.34091L80.8409 5.09659H81.0454L83.909 2.18182H85.1534L82.1022 5.26705H82.017L80.8579 6.34091ZM79.9204 8.72727V0H80.9261V8.72727H79.9204ZM84.0795 8.72727L81.5227 5.48864L82.2386 4.78977L85.3579 8.72727H84.0795Z" fill="white"/>
</svg>
